# xmcd CD database file
#
# Track frame offsets:
#	150
#	15296
#	30127
#	47856
#	62595
#	78504
#	98844
#	113769
#	129776
#	141761
#	157243
#
# Disc length: 2603 seconds
#
# Revision: 0
# Processed by: cddbd v1.5.2PL0 Copyright (c) Steve Scherf et al.
# Submitted via: CDex 1.81
#
DISCID=7e0a290b
DTITLE=Mai Lan - Mai Lan
DYEAR=2014
DGENRE=Jazz
TTITLE0=Easy
TTITLE1=Schmacher
TTITLE2=Chrysanthemes
TTITLE3=Dai dai
TTITLE4=Hard Joy
TTITLE5=Sanctuary
TTITLE6=Mon petit amoureyx
TTITLE7=Les huitres
TTITLE8=Countrille
TTITLE9=Jim
TTITLE10=Le dahut
EXTD=YEAR: 2014
EXTT0=
EXTT1=
EXTT2=
EXTT3=
EXTT4=
EXTT5=
EXTT6=
EXTT7=
EXTT8=
EXTT9=
EXTT10=
PLAYORDER=
